# xmcd CD database file
#
# Track frame offsets:
#	150
#	11010
#	23330
#	36040
#	47205
#	60977
#	69905
#	81885
#	95285
#	106242
#	119472
#	132012
#	142420
#	154305
#	167170
#	178350
#	185920
#	198865
#	208397
#	220375
#	234567
#	243527
#
# Disc length: 3533 seconds
#
# Revision: 1
# Processed by: cddbd v1.5.1PL2 Copyright (c) Steve Scherf et al.
# Submitted via: CDex 1.51
#
DISCID=420dcb16
DTITLE=Various Artist - Rhythm and Blues - 1960
DYEAR=1960
DGENRE=
TTITLE0=Ballard, Hank and The Midnighters//Let's Go, Let's Go, Let's Go
TTITLE1=Washington, Dinah and Brook Benton/Baby (You've Got What It Takes)
TTITLE2=Butler, Jerry/He Will Break Your Heart
TTITLE3=Drifters/Save the Last Dance For Me
TTITLE4=DeSanto, Sugar Pie/I Want To Know
TTITLE5=Jones, Jimmy/Handy Man
TTITLE6=Johnson, Marv/I Love The Way You Love
TTITLE7=Brown, Buster/Fannie Mae
TTITLE8=Bland, Bobby 'Blue'/I'll Take Care of You
TTITLE9=James, Etta/All I Could Do Was Cry
TTITLE10=Wilson, Jackie/Doggin' Around
TTITLE11=Hill, Jessie/Ooh Poo Pah Doo (Pt 2)
TTITLE12=Jones, Joe/You Talk Too Much
TTITLE13=Bonds, Gary 'U.S.'/New Orleans
TTITLE14=Olympics/Big Boy Pete
TTITLE15=Williams, Maurice and The Zodiacs/Stay
TTITLE16=Turner, Ike and Tina/A Fool In Love
TTITLE17=Gordon, Rosco/Just A Little Bit
TTITLE18=Benton, Brook/Kiddio
TTITLE19=Bryant, Ray, Combo/The Madison Time (Pt 1)
TTITLE20=Domino, Fats/Walking to New Orleans
TTITLE21=Marchan, Bobby/There's Something on Your Mind (Pts. 1 and 2)
EXTD=Time-Life Music RHD-15\n YEAR: 1960
EXTT0=
EXTT1=
EXTT2=
EXTT3=
EXTT4=
EXTT5=
EXTT6=
EXTT7=
EXTT8=
EXTT9=
EXTT10=
EXTT11=
EXTT12=
EXTT13=
EXTT14=
EXTT15=
EXTT16=
EXTT17=
EXTT18=
EXTT19=
EXTT20=
EXTT21=
PLAYORDER=
